<svg id="visual" viewBox="0 0 960 540" width="960" height="540" xmlns="http://www.w3.org/2000/svg" xmlns:xlink="http://www.w3.org/1999/xlink" version="1.1"><rect x="0" y="0" width="960" height="540" fill="#ebf1e6"></rect><path d="M0 432L17.8 440.7C35.7 449.3 71.3 466.7 106.8 466.5C142.3 466.3 177.7 448.7 213.2 441.5C248.7 434.3 284.3 437.7 320 448C355.7 458.3 391.3 475.7 426.8 467.8C462.3 460 497.7 427 533.2 408.5C568.7 390 604.3 386 640 393C675.7 400 711.3 418 746.8 412C782.3 406 817.7 376 853.2 371.7C888.7 367.3 924.3 388.7 942.2 399.3L960 410L960 541L942.2 541C924.3 541 888.7 541 853.2 541C817.7 541 782.3 541 746.8 541C711.3 541 675.7 541 640 541C604.3 541 568.7 541 533.2 541C497.7 541 462.3 541 426.8 541C391.3 541 355.7 541 320 541C284.3 541 248.7 541 213.2 541C177.7 541 142.3 541 106.8 541C71.3 541 35.7 541 17.8 541L0 541Z" fill="#bbc9af"></path><path d="M0 396L17.8 397.8C35.7 399.7 71.3 403.3 106.8 421C142.3 438.7 177.7 470.3 213.2 473.3C248.7 476.3 284.3 450.7 320 448.8C355.7 447 391.3 469 426.8 487.2C462.3 505.3 497.7 519.7 533.2 510C568.7 500.3 604.3 466.7 640 465.8C675.7 465 711.3 497 746.8 497.7C782.3 498.3 817.7 467.7 853.2 461.7C888.7 455.7 924.3 474.3 942.2 483.7L960 493L960 541L942.2 541C924.3 541 888.7 541 853.2 541C817.7 541 782.3 541 746.8 541C711.3 541 675.7 541 640 541C604.3 541 568.7 541 533.2 541C497.7 541 462.3 541 426.8 541C391.3 541 355.7 541 320 541C284.3 541 248.7 541 213.2 541C177.7 541 142.3 541 106.8 541C71.3 541 35.7 541 17.8 541L0 541Z" fill="#738365"></path></svg>