<svg id="visual" viewBox="0 0 960 540" width="960" height="540" xmlns="http://www.w3.org/2000/svg" xmlns:xlink="http://www.w3.org/1999/xlink" version="1.1"><rect x="0" y="0" width="960" height="540" fill="#ebf1e6"></rect><path d="M0 458L13.3 456.3C26.7 454.7 53.3 451.3 80 443C106.7 434.7 133.3 421.3 160 420.7C186.7 420 213.3 432 240 436.5C266.7 441 293.3 438 320 441.2C346.7 444.3 373.3 453.7 400 456C426.7 458.3 453.3 453.7 480 443.2C506.7 432.7 533.3 416.3 560 415.3C586.7 414.3 613.3 428.7 640 441.5C666.7 454.3 693.3 465.7 720 464.8C746.7 464 773.3 451 800 441.5C826.7 432 853.3 426 880 427.2C906.7 428.3 933.3 436.7 946.7 440.8L960 445L960 541L946.7 541C933.3 541 906.7 541 880 541C853.3 541 826.7 541 800 541C773.3 541 746.7 541 720 541C693.3 541 666.7 541 640 541C613.3 541 586.7 541 560 541C533.3 541 506.7 541 480 541C453.3 541 426.7 541 400 541C373.3 541 346.7 541 320 541C293.3 541 266.7 541 240 541C213.3 541 186.7 541 160 541C133.3 541 106.7 541 80 541C53.3 541 26.7 541 13.3 541L0 541Z" fill="#bbc9af"></path><path d="M0 461L13.3 461.7C26.7 462.3 53.3 463.7 80 463.3C106.7 463 133.3 461 160 470.3C186.7 479.7 213.3 500.3 240 510C266.7 519.7 293.3 518.3 320 510.5C346.7 502.7 373.3 488.3 400 481.8C426.7 475.3 453.3 476.7 480 476.8C506.7 477 533.3 476 560 479C586.7 482 613.3 489 640 493.8C666.7 498.7 693.3 501.3 720 494.8C746.7 488.3 773.3 472.7 800 471.3C826.7 470 853.3 483 880 482.7C906.7 482.3 933.3 468.7 946.7 461.8L960 455L960 541L946.7 541C933.3 541 906.7 541 880 541C853.3 541 826.7 541 800 541C773.3 541 746.7 541 720 541C693.3 541 666.7 541 640 541C613.3 541 586.7 541 560 541C533.3 541 506.7 541 480 541C453.3 541 426.7 541 400 541C373.3 541 346.7 541 320 541C293.3 541 266.7 541 240 541C213.3 541 186.7 541 160 541C133.3 541 106.7 541 80 541C53.3 541 26.7 541 13.3 541L0 541Z" fill="#738365"></path></svg>