<svg id="visual" viewBox="0 0 960 540" width="960" height="540" xmlns="http://www.w3.org/2000/svg" xmlns:xlink="http://www.w3.org/1999/xlink" version="1.1"><rect x="0" y="0" width="960" height="540" fill="#ebf1e6"></rect><path d="M0 500L17.8 472.3C35.7 444.7 71.3 389.3 106.8 379.3C142.3 369.3 177.7 404.7 213.2 429.7C248.7 454.7 284.3 469.3 320 465C355.7 460.7 391.3 437.3 426.8 417.8C462.3 398.3 497.7 382.7 533.2 387.3C568.7 392 604.3 417 640 420C675.7 423 711.3 404 746.8 412.2C782.3 420.3 817.7 455.7 853.2 447.7C888.7 439.7 924.3 388.3 942.2 362.7L960 337L960 541L942.2 541C924.3 541 888.7 541 853.2 541C817.7 541 782.3 541 746.8 541C711.3 541 675.7 541 640 541C604.3 541 568.7 541 533.2 541C497.7 541 462.3 541 426.8 541C391.3 541 355.7 541 320 541C284.3 541 248.7 541 213.2 541C177.7 541 142.3 541 106.8 541C71.3 541 35.7 541 17.8 541L0 541Z" fill="#bbc9af"></path><path d="M0 499L17.8 500.5C35.7 502 71.3 505 106.8 491.7C142.3 478.3 177.7 448.7 213.2 450C248.7 451.3 284.3 483.7 320 482.2C355.7 480.7 391.3 445.3 426.8 448.3C462.3 451.3 497.7 492.7 533.2 495.8C568.7 499 604.3 464 640 452.5C675.7 441 711.3 453 746.8 456.3C782.3 459.7 817.7 454.3 853.2 444.8C888.7 435.3 924.3 421.7 942.2 414.8L960 408L960 541L942.2 541C924.3 541 888.7 541 853.2 541C817.7 541 782.3 541 746.8 541C711.3 541 675.7 541 640 541C604.3 541 568.7 541 533.2 541C497.7 541 462.3 541 426.8 541C391.3 541 355.7 541 320 541C284.3 541 248.7 541 213.2 541C177.7 541 142.3 541 106.8 541C71.3 541 35.7 541 17.8 541L0 541Z" fill="#738365"></path></svg>