<svg id="visual" viewBox="0 0 960 540" width="960" height="540" xmlns="http://www.w3.org/2000/svg" xmlns:xlink="http://www.w3.org/1999/xlink" version="1.1"><rect x="0" y="0" width="960" height="540" fill="#ebf1e6"></rect><path d="M0 382L17.8 402.2C35.7 422.3 71.3 462.7 106.8 463.5C142.3 464.3 177.7 425.7 213.2 415.5C248.7 405.3 284.3 423.7 320 439.3C355.7 455 391.3 468 426.8 468.2C462.3 468.3 497.7 455.7 533.2 452.7C568.7 449.7 604.3 456.3 640 446.5C675.7 436.7 711.3 410.3 746.8 390C782.3 369.7 817.7 355.3 853.2 354.3C888.7 353.3 924.3 365.7 942.2 371.8L960 378L960 541L942.2 541C924.3 541 888.7 541 853.2 541C817.7 541 782.3 541 746.8 541C711.3 541 675.7 541 640 541C604.3 541 568.7 541 533.2 541C497.7 541 462.3 541 426.8 541C391.3 541 355.7 541 320 541C284.3 541 248.7 541 213.2 541C177.7 541 142.3 541 106.8 541C71.3 541 35.7 541 17.8 541L0 541Z" fill="#bbc9af"></path><path d="M0 401L17.8 403.5C35.7 406 71.3 411 106.8 430.5C142.3 450 177.7 484 213.2 501C248.7 518 284.3 518 320 515.7C355.7 513.3 391.3 508.7 426.8 510.7C462.3 512.7 497.7 521.3 533.2 526C568.7 530.7 604.3 531.3 640 509.8C675.7 488.3 711.3 444.7 746.8 432C782.3 419.3 817.7 437.7 853.2 437.7C888.7 437.7 924.3 419.3 942.2 410.2L960 401L960 541L942.2 541C924.3 541 888.7 541 853.2 541C817.7 541 782.3 541 746.8 541C711.3 541 675.7 541 640 541C604.3 541 568.7 541 533.2 541C497.7 541 462.3 541 426.8 541C391.3 541 355.7 541 320 541C284.3 541 248.7 541 213.2 541C177.7 541 142.3 541 106.8 541C71.3 541 35.7 541 17.8 541L0 541Z" fill="#738365"></path></svg>